<svg xmlns="http://www.w3.org/2000/svg" viewBox="0 0 242.667 242.667" width="512" height="512"><path d="M0 0v242.667h242.667V0H0zm177.006 135.224l21.075 24.216c2.694 3.096.495 7.925-3.609 7.925h-23.783a14.878 14.878 0 0 1-10.13-3.982l-7.043-6.549c-7.948-6.954-11.326-9.339-14.505-9.339-3.179 0-3.974 2.384-3.974 8.544 0 6.159-1.192 11.326-19.472 11.326s-32.586-13.71-48.68-34.97c-16.094-21.26-23.247-44.11-23.247-44.11-.888-2.86 1.25-5.762 4.245-5.762h19.032a9.283 9.283 0 0 1 8.435 5.378c1.558 3.373 4.238 8.578 8.822 16.279 6.505 10.928 12.754 15.851 16.294 17.947 1.318.781 2.98-.184 2.98-1.716V94.199c0-3.43-1.239-6.744-3.49-9.332l-2.683-3.085c-.694-.798-.127-2.041.93-2.041h30.079a8.345 8.345 0 0 1 8.345 8.345v30.483c0 1.964 2.549 2.732 3.634 1.096l21.649-32.627a9.213 9.213 0 0 1 7.675-4.119h25.413c3.473 0 5.585 3.825 3.736 6.765l-22.487 35.741a8.242 8.242 0 0 0 .759 9.799z" data-original="#000000" class="active-path" data-old_color="#45668e" fill="#45668e"/></svg>